<?xml version="1.0" standalone="no"?>
<!DOCTYPE svg PUBLIC "-//W3C//DTD SVG 20010904//EN"
 "http://www.w3.org/TR/2001/REC-SVG-20010904/DTD/svg10.dtd">
<svg version="1.0" xmlns="http://www.w3.org/2000/svg"
 width="192.000000pt" height="192.000000pt" viewBox="0 0 192.000000 192.000000"
 preserveAspectRatio="xMidYMid meet">
<metadata>
Created by potrace 1.10, written by Peter Selinger 2001-2011
</metadata>
<g transform="translate(0.000000,192.000000) scale(0.100000,-0.100000)"
fill="#000000" stroke="none">
<path d="M1112 1859 c-24 -12 -50 -31 -59 -43 -16 -22 -17 -22 -52 -4 -19 10
-44 18 -56 18 -31 -1 -101 -35 -118 -60 -10 -14 -17 -18 -22 -10 -6 10 -112
73 -127 76 -5 1 -9 2 -10 4 -6 4 -65 10 -108 10 -54 1 -81 -3 -98 -14 -6 -4
-12 -4 -12 0 0 4 -9 -1 -20 -11 -11 -10 -20 -15 -20 -11 0 4 -10 -3 -22 -14
-25 -24 -101 -70 -120 -74 -7 -2 -26 -6 -41 -11 -17 -4 -38 -3 -52 3 -19 9
-28 8 -40 -5 -9 -9 -13 -19 -8 -22 4 -3 19 -28 33 -55 54 -107 159 -195 253
-211 42 -8 45 -17 17 -45 -21 -21 -101 -65 -112 -62 -5 1 -8 -3 -8 -9 0 -5 -4
-8 -9 -5 -5 3 -12 -2 -15 -11 -12 -29 28 -42 66 -22 18 10 17 7 -5 -23 -53
-69 -73 -150 -68 -267 1 -31 8 -23 51 54 25 45 28 56 12 42 -11 -10 -27 -33
-36 -50 -13 -27 -16 -29 -16 -10 0 32 20 121 36 160 12 28 17 32 33 24 26 -14
66 -20 205 -31 154 -12 326 -13 326 -1 0 5 -60 9 -132 10 -204 1 -408 22 -408
42 0 5 16 27 36 49 20 22 32 40 27 40 -5 0 -13 -4 -18 -9 -6 -5 -30 -12 -55
-15 l-45 -6 65 34 c44 23 70 31 81 25 23 -12 207 -47 342 -64 139 -18 150 -18
142 -5 -3 6 -25 10 -48 10 -51 0 -184 20 -335 50 l-112 23 42 36 c23 19 67 61
99 92 32 31 78 66 103 79 60 29 152 42 167 23 6 -7 29 -13 50 -13 28 0 39 -4
39 -15 0 -8 5 -15 10 -15 6 0 10 4 10 9 0 5 22 11 50 15 27 4 52 11 55 16 4 6
11 7 17 4 7 -4 8 -2 4 4 -14 23 64 12 122 -15 53 -27 222 -174 222 -195 0 -5
-5 -6 -10 -3 -6 4 -9 1 -8 -7 8 -35 -164 -84 -331 -94 l-120 -7 -4 54 c-3 50
-3 49 -5 -16 -2 -49 -8 -80 -21 -102 -33 -54 -72 -194 -80 -288 -8 -90 -3
-132 10 -85 4 14 7 50 8 81 1 67 41 230 69 285 l20 39 40 -82 c21 -44 56 -133
77 -197 21 -64 42 -116 46 -116 12 0 22 103 17 170 -2 33 -3 60 0 60 5 0 102
-207 102 -220 0 -5 5 -10 10 -10 6 0 10 21 10 48 l1 47 18 -50 c10 -27 26 -72
36 -98 l17 -49 18 27 17 26 6 -62 c5 -55 2 -69 -24 -122 -32 -66 -57 -96 -77
-89 -6 2 -12 -1 -12 -6 0 -14 52 -6 91 13 30 16 32 16 25 -1 -4 -9 -9 -45 -13
-78 -5 -52 -10 -65 -37 -87 l-31 -27 -28 24 c-16 13 -35 24 -42 24 -20 0 -38
-38 -31 -65 5 -21 0 -23 -77 -40 -104 -23 -201 -24 -299 -1 l-77 17 6 30 c11
57 -32 77 -77 34 l-26 -25 -33 28 c-19 16 -34 38 -35 55 -4 30 -2 31 25 17 24
-14 24 -5 -1 27 -24 30 -26 47 -5 39 9 -3 19 3 25 14 7 14 7 20 0 20 -5 0 -10
-4 -10 -9 0 -5 -9 -11 -19 -14 -27 -7 -31 14 -37 175 -4 88 -2 143 5 155 9 16
10 14 11 -12 0 -42 19 -105 31 -105 6 0 8 4 5 8 -7 11 20 138 43 206 12 33 19
61 16 64 -7 8 -45 -87 -60 -151 -8 -33 -16 -61 -18 -63 -2 -3 -7 22 -11 55 -7
61 7 179 25 213 13 23 2 39 -11 18 -13 -21 -30 -104 -30 -145 0 -18 -7 -62
-16 -97 -10 -40 -15 -85 -11 -123 l5 -60 -15 35 c-8 19 -23 71 -33 115 -11 47
-19 67 -19 50 -1 -17 4 -46 10 -65 6 -19 11 -60 11 -90 1 -46 2 -49 7 -20 l6
35 12 -40 c7 -22 17 -65 23 -95 6 -30 17 -68 25 -84 22 -41 11 -43 -18 -4 -27
36 -51 80 -61 115 -6 18 -4 22 8 17 9 -3 16 -1 16 5 0 6 -6 11 -14 11 -43 0
-99 125 -100 222 -1 32 -4 58 -7 58 -15 0 -15 -79 0 -140 14 -56 14 -71 3
-105 -9 -27 -13 -78 -10 -157 3 -107 9 -140 24 -126 6 7 6 16 -2 121 -4 43 -3
103 1 134 l7 56 26 -33 c15 -19 34 -56 43 -82 9 -27 30 -68 46 -91 41 -58 47
-77 24 -77 -10 0 -23 -6 -29 -12 -12 -17 -21 -127 -10 -134 15 -10 8 -29 -14
-39 -13 -6 -31 -27 -41 -47 -16 -33 -16 -40 -4 -71 22 -52 61 -77 119 -77 63
0 103 27 117 77 8 28 7 44 -3 63 -12 24 -10 29 16 55 15 16 28 35 28 43 0 10
6 12 18 7 9 -4 30 -10 47 -14 23 -5 31 -14 36 -41 4 -19 16 -42 27 -50 14 -12
17 -21 11 -38 -11 -30 20 -62 60 -62 36 0 37 1 46 68 5 35 3 52 -4 52 -6 0
-11 -15 -11 -34 0 -63 -17 -79 -60 -56 -17 9 -18 14 -8 38 20 46 46 70 72 65
20 -4 25 -13 31 -51 10 -73 26 -90 72 -83 32 5 38 10 41 33 2 15 -2 36 -8 48
-8 16 -8 20 4 20 20 0 29 17 28 55 -1 28 3 33 33 43 32 9 36 8 46 -11 6 -12
20 -32 31 -44 16 -18 18 -25 8 -43 -27 -50 20 -130 86 -146 63 -16 145 33 157
93 7 36 -19 92 -49 105 -26 12 -25 37 2 113 8 23 20 72 28 110 l14 70 2 -65
c1 -36 2 -71 1 -77 -1 -7 2 -13 6 -13 11 0 35 16 32 21 -2 2 3 25 10 52 15 53
11 221 -7 252 -6 12 -7 28 -1 43 5 13 10 48 10 79 1 30 5 50 9 44 14 -24 45
72 45 139 l0 65 30 -35 c16 -19 31 -37 32 -39 2 -2 6 -2 9 2 8 8 -6 48 -15 43
-4 -3 -21 8 -36 24 -15 16 -31 27 -35 25 -4 -2 -5 -26 -3 -52 3 -26 0 -64 -5
-83 l-10 -35 -2 40 c-1 22 -3 72 -5 110 -3 79 -78 323 -114 373 -26 37 -26 42
-3 42 10 0 40 11 67 25 l49 24 43 -19 c53 -23 145 -114 160 -157 l12 -32 -27
11 c-15 7 -32 15 -38 20 -22 16 -21 -4 1 -26 13 -13 29 -42 35 -65 14 -54 30
-190 30 -266 0 -59 0 -59 -17 -35 -24 37 -64 79 -97 103 -38 27 -24 4 24 -39
20 -19 48 -54 61 -79 13 -25 27 -45 31 -45 16 0 21 57 15 159 -7 115 -27 206
-54 249 l-18 27 32 -23 c41 -29 47 -28 39 8 -8 40 -56 111 -102 149 l-37 30
40 -1 c43 0 107 28 137 61 26 28 18 33 -29 16 -22 -8 -77 -14 -123 -15 l-82 0
29 41 c38 52 73 157 69 206 -3 34 -5 38 -28 33 -22 -4 -116 -4 -162 0 -10 1
-20 5 -23 10 -3 5 -12 7 -19 4 -8 -3 -17 0 -21 5 -3 6 -10 9 -14 7 -4 -3 -29
1 -56 9 -74 23 -191 20 -243 -6z m307 -31 c121 -30 185 -33 235 -13 17 8 19 5
14 -31 -22 -158 -129 -283 -258 -303 -54 -9 -55 -8 -100 31 -64 57 -138 97
-192 104 -46 6 -48 8 -48 39 0 27 5 35 33 46 46 20 153 18 210 -4 52 -20 58
-31 26 -47 -11 -7 -18 -14 -15 -17 3 -3 18 2 33 12 l27 18 -29 23 c-58 46
-212 58 -269 20 -22 -14 -25 -13 -46 9 -22 23 -22 24 -4 54 38 65 135 105 224
94 19 -2 91 -18 159 -35z m-697 -36 c78 -38 110 -69 101 -101 -4 -18 -10 -21
-27 -16 -11 4 -66 9 -122 12 -90 5 -105 3 -144 -17 -36 -18 -40 -24 -29 -35 8
-8 28 -16 44 -19 l30 -6 -32 15 c-18 8 -33 17 -33 20 0 2 13 11 30 20 35 18
163 19 230 2 37 -10 46 -17 48 -38 3 -23 0 -25 -40 -27 -88 -5 -124 -24 -210
-108 -57 -57 -57 -57 -117 -56 -109 2 -215 81 -280 209 l-30 60 44 -5 c53 -6
90 7 178 60 100 60 130 69 218 64 59 -3 92 -11 141 -34z m261 7 c28 -7 37 -15
33 -26 -3 -8 -6 -18 -6 -22 0 -4 -24 -6 -54 -3 -30 2 -69 -1 -87 -7 -18 -6
-37 -7 -41 -3 -12 12 24 41 69 58 47 16 40 16 86 3z m42 -91 c30 -31 39 -92
18 -114 -13 -13 -33 -15 -99 -12 -46 1 -88 8 -94 14 -7 7 -12 33 -12 60 0 69
26 88 106 81 44 -4 65 -11 81 -29z m659 -177 c69 3 81 2 63 -8 -47 -24 -120
-30 -159 -13 -28 12 -35 19 -26 28 8 8 15 8 25 1 7 -7 46 -10 97 -8z m-249
-132 c15 -29 22 -48 15 -44 -9 6 -12 4 -7 -6 32 -74 59 -145 63 -163 2 -11 10
-48 18 -81 14 -56 14 -91 1 -49 -13 39 -46 106 -51 101 -3 -2 4 -24 15 -48 26
-57 35 -82 32 -92 0 -4 5 -36 13 -70 9 -38 11 -66 5 -71 -5 -6 -9 -2 -9 11 0
12 -3 24 -7 26 -5 3 -10 -34 -12 -81 -5 -117 -5 -141 4 -257 4 -58 3 -117 -3
-140 -10 -39 -10 -39 -11 -8 -1 18 -8 52 -15 75 -16 45 -21 145 -11 189 4 15
0 42 -9 64 -9 20 -16 47 -17 59 0 11 -7 -5 -15 -37 -7 -31 -21 -71 -30 -88 -8
-17 -13 -33 -10 -36 7 -7 46 82 46 103 0 9 5 12 10 9 6 -3 10 -25 10 -47 0
-60 -54 -144 -113 -174 l-28 -15 22 43 c12 24 27 46 34 50 15 9 11 138 -5 169
-8 13 -8 31 0 57 5 20 9 53 9 72 -1 28 -4 21 -15 -30 -8 -36 -19 -78 -25 -93
l-12 -28 -17 50 c-10 27 -29 73 -43 103 l-25 53 -1 -49 -1 -50 -52 104 c-29
57 -58 106 -65 108 -8 2 -10 -17 -6 -71 3 -41 3 -87 -1 -103 -7 -25 -10 -21
-32 46 -14 41 -48 122 -77 180 -28 58 -53 108 -55 111 -1 3 57 9 130 12 101 5
151 12 208 30 99 32 130 47 130 64 0 8 5 11 10 8 21 -13 9 13 -25 52 -19 22
-31 43 -28 47 10 10 28 -10 58 -65z m-940 21 c-7 -11 -45 -33 -45 -26 0 2 7
12 16 20 17 18 39 22 29 6z m962 -872 c-3 -57 -11 -125 -17 -152 l-13 -48 -13
32 c-11 25 -18 31 -35 27 -14 -4 -19 -2 -16 7 3 7 8 39 12 71 6 44 16 69 41
102 19 25 34 49 34 54 0 5 3 9 6 9 4 0 4 -46 1 -102z m-883 -236 c3 -27 4 -57
0 -66 -12 -31 11 -16 31 20 22 42 92 107 105 99 26 -16 -1 -104 -45 -145 -22
-21 -23 -24 -9 -46 41 -61 -35 -144 -116 -127 -45 8 -90 55 -90 91 0 36 34 82
62 82 17 0 19 4 14 25 -16 62 -18 113 -6 135 l13 24 17 -22 c10 -11 20 -43 24
-70z m830 51 c4 -16 2 -52 -4 -82 -5 -30 -9 -55 -8 -55 83 -40 100 -91 51
-146 -50 -56 -147 -50 -178 11 -19 36 -19 59 1 87 9 13 11 22 4 22 -19 0 -70
92 -70 127 0 58 41 39 101 -47 23 -33 42 -60 43 -60 1 0 2 32 3 71 2 70 13 99
38 99 8 0 16 -12 19 -27z m-784 -43 c0 -4 -6 -15 -14 -25 -12 -17 -14 -16 -18
17 -3 32 -2 34 14 24 10 -6 18 -13 18 -16z m712 -10 l-4 -40 -20 26 c-20 24
-20 25 -2 39 28 21 30 19 26 -25z m-411 -83 c4 -5 9 -5 13 2 4 6 23 11 42 11
52 0 38 -25 -15 -26 -28 -1 -49 -8 -65 -23 l-24 -22 -16 22 c-9 13 -16 31 -16
41 0 14 6 16 38 11 20 -3 40 -10 43 -16z m189 16 c-1 -25 -14 -53 -26 -53 -23
0 -64 23 -64 36 0 7 8 15 18 17 29 8 72 7 72 0z m-69 -52 c17 -8 29 -24 33
-43 11 -53 8 -58 -28 -58 -32 0 -34 2 -44 52 -10 51 -8 73 6 66 4 -2 19 -10
33 -17z"/>
<path d="M1100 1640 c14 -4 39 -8 55 -8 l30 0 -30 8 c-16 4 -41 8 -55 8 l-25
0 25 -8z"/>
<path d="M1220 1628 c0 -11 62 -10 79 1 8 5 -3 8 -33 7 -25 0 -46 -4 -46 -8z"/>
<path d="M760 1616 c6 -6 18 -5 32 2 22 10 21 11 -9 9 -21 -1 -29 -5 -23 -11z"/>
<path d="M618 1603 c7 -3 16 -2 19 1 4 3 -2 6 -13 5 -11 0 -14 -3 -6 -6z"/>
<path d="M1335 1238 c-66 -15 -166 -33 -222 -40 -57 -7 -103 -16 -103 -20 0
-11 20 -10 135 8 109 16 107 16 213 39 87 19 119 30 106 37 -5 2 -63 -8 -129
-24z"/>
<path d="M1480 661 c0 -25 6 -27 13 -6 4 8 2 17 -3 20 -6 4 -10 -3 -10 -14z"/>
<path d="M557 163 c-19 -18 8 -93 34 -93 6 0 3 10 -5 22 -17 24 -22 68 -7 68
4 0 20 -12 35 -27 14 -14 29 -23 32 -20 4 3 -6 17 -21 31 -27 25 -55 33 -68
19z"/>
<path d="M1299 149 c-16 -17 -26 -35 -23 -41 3 -5 15 4 25 21 24 40 53 42 47
4 -3 -16 -9 -37 -13 -48 -8 -18 -7 -18 7 -7 23 18 33 69 18 87 -18 22 -29 19
-61 -16z"/>
<path d="M386 1125 c-56 -117 -74 -337 -29 -352 9 -3 9 4 2 29 -19 68 1 224
41 316 22 50 9 57 -14 7z"/>
<path d="M911 1109 c-6 -18 -11 -37 -10 -43 0 -6 7 7 15 28 8 22 12 41 10 43
-2 2 -9 -10 -15 -28z"/>
<path d="M758 1100 c-9 -14 -28 -50 -41 -80 -49 -112 -47 -109 -41 -65 3 22 8
49 10 60 2 11 1 14 -2 7 -3 -6 -9 -10 -12 -8 -4 2 -8 -39 -9 -93 -2 -81 0 -90
9 -61 18 62 79 220 86 224 4 2 8 -23 10 -56 1 -32 11 -85 22 -116 18 -56 18
-57 0 -76 -12 -13 -34 -19 -64 -20 -25 -1 -46 -4 -46 -8 0 -12 79 -9 103 4 46
24 48 33 26 84 -14 30 -23 79 -28 138 -6 89 -6 91 -23 66z"/>
<path d="M1050 849 c0 -19 67 -40 95 -29 14 5 25 14 25 19 0 5 -12 5 -29 -2
-23 -9 -34 -7 -55 6 -30 20 -36 21 -36 6z"/>
<path d="M780 671 c0 -5 14 -14 31 -20 39 -13 39 -13 39 -2 0 5 -14 14 -31 20
-39 13 -39 13 -39 2z"/>
<path d="M1064 666 c-31 -23 -12 -26 31 -6 36 16 37 18 14 19 -14 1 -34 -5
-45 -13z"/>
<path d="M585 661 c-7 -13 10 -22 28 -16 19 8 174 -12 195 -25 14 -8 12 -9 -9
-4 -25 5 -207 -21 -218 -31 -13 -13 13 -13 82 0 42 8 101 15 131 16 31 1 56 5
56 9 0 17 -70 39 -155 49 -109 13 -103 13 -110 2z"/>
<path d="M1170 656 c-130 -22 -168 -50 -73 -54 51 -3 140 -16 186 -27 16 -4
27 -3 27 3 0 14 -90 32 -168 35 -33 1 -57 5 -53 10 9 9 165 29 194 25 11 -2
22 3 24 10 6 15 -34 14 -137 -2z"/>
<path d="M426 598 c-7 -32 -14 -77 -20 -118 -4 -31 -4 -31 2 -5 7 27 8 25 19
-30 11 -60 50 -162 58 -153 2 2 -8 38 -22 79 -21 58 -27 93 -27 161 -1 49 -2
88 -3 88 -2 0 -5 -10 -7 -22z"/>
<path d="M627 513 c-4 -3 -7 -11 -7 -17 0 -6 5 -5 12 2 6 6 9 14 7 17 -3 3 -9
2 -12 -2z"/>
<path d="M993 373 c-21 -28 -21 -28 -52 -11 -37 21 -42 5 -5 -19 21 -13 30
-14 45 -5 10 6 24 9 32 6 8 -3 20 2 27 11 10 12 10 18 0 30 -17 21 -23 19 -47
-12z m37 -3 c0 -5 -7 -10 -16 -10 -8 0 -12 5 -9 10 3 6 10 10 16 10 5 0 9 -4
9 -10z"/>
</g>
</svg>
